<svg width="0" height="0" class="hidden">
  <symbol fill="none" xmlns="http://www.w3.org/2000/svg" viewBox="0 0 14 14" id="download_cart">
    <path d="M11.5391 11.9219H3.74609C3.06759 11.9219 2.51562 11.3699 2.51562 10.6914C2.51562 10.0129 3.06759 9.46094 3.74609 9.46094H4.97656L4.23716 10.2812H3.74609C3.5198 10.2812 3.33594 10.4651 3.33594 10.6914C3.33594 10.9177 3.5198 11.1016 3.74609 11.1016H11.5391V11.9219Z" fill="#F9C2D2"></path>
    <path d="M7.84766 11.1016H11.5391V11.9219H7.84766V11.1016Z" fill="#F98AAB"></path>
    <path opacity="0.5" d="M2.96349 4.53923L2.59695 2.89844H0V2.07812H3.25462L3.9652 5.26004L2.96349 4.53923Z" fill="#F98AAB"></path>
    <path d="M9.60994 4.67966L9.48739 4.53906H2.96533L4.23827 10.2812H11.4476L12.8932 4.68727C12.6124 4.75743 10.9513 6.22068 9.60994 4.67966ZM11.6735 6.12801L11.4482 7H9.52477L9.62906 5.7487C10.2306 6.11529 10.9699 6.26109 11.6735 6.12801ZM6.9955 7L6.85875 5.35938H8.83874L8.70199 7H6.9955ZM8.63366 7.82031L8.49692 9.46094H7.20055L7.0638 7.82031H8.63366ZM6.03601 5.35938L6.17275 7H4.35122L3.98752 5.35938H6.03601ZM4.53306 7.82031H6.24108L6.37783 9.46094H4.89678L4.53306 7.82031ZM9.31972 9.46094L9.45646 7.82031H11.2363L10.8124 9.46094H9.31972Z" fill="#F9C2D2"></path>
    <path d="M9.60884 4.67966L9.48629 4.53906H7.84766V5.35938H8.83764L8.70089 7H7.84766V7.82031H8.63256L8.49581 9.46094H7.84766V10.2812H11.4465L12.8921 4.68727C12.6113 4.7574 10.9502 6.22065 9.60884 4.67966ZM10.8113 9.46094H9.31861L9.45536 7.82031H11.2352L10.8113 9.46094ZM11.6724 6.12801L11.4471 7H9.52366L9.62795 5.7487C10.2295 6.11529 10.9688 6.26109 11.6724 6.12801Z" fill="#F98AAB"></path>
    <path d="M5.38672 13.5625C4.70821 13.5625 4.15625 13.0105 4.15625 12.332C4.15625 11.6535 4.70821 11.1016 5.38672 11.1016C6.06523 11.1016 6.61719 11.6535 6.61719 12.332C6.61719 13.0105 6.06523 13.5625 5.38672 13.5625Z" fill="#665151"></path>
    <path d="M9.48828 13.5625C8.80977 13.5625 8.25781 13.0105 8.25781 12.332C8.25781 11.6535 8.80977 11.1016 9.48828 11.1016C10.1668 11.1016 10.7188 11.6535 10.7188 12.332C10.7188 13.0105 10.1668 13.5625 9.48828 13.5625Z" fill="#4D3535"></path>
    <path d="M11.1289 6.17969C9.50195 6.17969 8.25781 4.85045 8.25781 3.30859C8.25781 1.72564 9.54595 0.4375 11.1289 0.4375C12.7119 0.4375 14 1.72564 14 3.30859C14 4.93005 12.6829 6.17969 11.1289 6.17969Z" fill="#F9C2D2"></path>
    <path d="M5.38672 12.7422C5.61324 12.7422 5.79688 12.5586 5.79688 12.332C5.79688 12.1055 5.61324 11.9219 5.38672 11.9219C5.1602 11.9219 4.97656 12.1055 4.97656 12.332C4.97656 12.5586 5.1602 12.7422 5.38672 12.7422Z" fill="#FFF7E6"></path>
    <path d="M9.48828 12.7422C9.7148 12.7422 9.89844 12.5586 9.89844 12.332C9.89844 12.1055 9.7148 11.9219 9.48828 11.9219C9.26176 11.9219 9.07812 12.1055 9.07812 12.332C9.07812 12.5586 9.26176 12.7422 9.48828 12.7422Z" fill="#FFEACC"></path>
    <path d="M14 3.30859C14 1.72564 12.7119 0.4375 11.1289 0.4375V6.17969C12.6829 6.17969 14 4.93005 14 3.30859Z" fill="#F98AAB"></path>
    <path d="M12.3594 2.89844H11.5391V2.07812H10.7188V2.89844H9.89844V3.71875H10.7188V4.53906H11.5391V3.71875H12.3594V2.89844Z" fill="white"></path>
    <path d="M11.1289 2.07812V4.53906H11.5391V3.71875H12.3594V2.89844H11.5391V2.07812H11.1289Z" fill="white"></path>
  </symbol>
  <symbol fill="none" xmlns="http://www.w3.org/2000/svg" viewBox="0 0 11 17" id="download_hand">
    <path d="M6.38386 4.125C7.25529 3.76315 7.72382 2.92064 7.5119 2.09671C7.30011 1.27278 6.46449 0.6875 5.49997 0.6875C4.53559 0.6875 3.69997 1.27278 3.48805 2.09671C3.27626 2.92064 3.74479 3.76315 4.61622 4.125H6.38386Z" fill="#F98AAB"></path>
    <path d="M3.1624 4.8125C3.08652 4.8125 3.01386 4.7794 2.96188 4.72092C1.81965 3.44293 1.75825 1.46537 2.81866 0.110841C2.88043 0.0280229 2.97982 -0.0130591 3.07835 0.0036877C3.17688 0.0204345 3.25907 0.0922625 3.29311 0.191435C3.32715 0.290607 3.30784 0.401424 3.24236 0.481102C2.35846 1.60994 2.4102 3.25832 3.36279 4.32279C3.43793 4.40718 3.45848 4.53081 3.41491 4.63731C3.37134 4.74368 3.27207 4.8125 3.1624 4.8125Z" fill="#F98AAB"></path>
    <path d="M8.26694 3.4375C8.16132 3.4375 8.06348 3.39302 8.00849 3.32017C7.9535 3.2472 7.94927 3.15647 7.99744 3.08053C8.54982 2.21095 8.4079 1.15869 7.63664 0.405891C7.56459 0.338669 7.54317 0.245176 7.58069 0.161508C7.61836 0.077839 7.70896 0.0172399 7.81759 0.0031112C7.92621 -0.0110175 8.03578 0.023642 8.10388 0.0935131C9.02947 0.997201 9.19977 2.26018 8.53699 3.30416C8.48514 3.38617 8.38075 3.43761 8.26694 3.4375Z" fill="#F98AAB"></path>
    <path d="M10.9998 7.86477V12.2986C10.9998 12.2986 10.9998 13.8082 10.0812 14.6822C9.9771 14.7858 9.91938 14.9301 9.92217 15.0799V15.9397C9.92132 16.2487 9.68059 16.499 9.38335 16.5H5.07268C4.77543 16.499 4.53471 16.2487 4.53386 15.9397V15.8361C4.53434 15.3871 4.36044 14.9568 4.05155 14.643C3.53153 14.1164 2.7287 13.2061 2.37846 12.2986C1.83964 10.8981 0.762005 8.93744 0.223186 8.37728C-0.315633 7.81711 0.223186 7.25694 0.762005 7.25694C1.30082 7.25694 2.37846 8.37728 2.91728 9.21759C3.08876 9.48803 3.28947 9.73703 3.5154 9.95981C3.64953 10.0894 3.83787 10.1391 4.01517 10.0914C4.19247 10.0438 4.33412 9.90547 4.391 9.72455C4.49359 9.37922 4.54186 9.01876 4.53386 8.65742V2.21532C4.53216 1.85928 4.74888 1.54156 5.07268 1.42544C5.15866 1.39153 5.24998 1.37451 5.34202 1.37501C5.78843 1.37501 6.15031 1.75123 6.15031 2.21532V5.57645C6.14862 5.22027 6.36533 4.90268 6.68913 4.78656C6.77524 4.75265 6.86656 4.7355 6.9586 4.73613C7.40489 4.73613 7.76677 5.11235 7.76677 5.57645V6.41663C7.76677 6.19385 7.85215 5.98015 8.00386 5.82293C8.08827 5.73379 8.19159 5.66659 8.30559 5.62688C8.39169 5.59296 8.48301 5.57582 8.57506 5.57645C9.02147 5.57645 9.38335 5.95266 9.38335 6.41663V7.81711C9.38335 7.59433 9.4686 7.38063 9.62044 7.22341C9.70472 7.13427 9.80817 7.06707 9.92217 7.02723C10.0272 6.98714 10.1392 6.97087 10.2508 6.9797C10.6836 7.02773 11.0091 7.41227 10.9998 7.86477Z" fill="#F98AAB"></path>
    <path d="M5.515 1.39259C5.42019 1.39209 5.32612 1.40895 5.23755 1.44256C4.90401 1.55761 4.68077 1.87241 4.68252 2.22519V8.60822C4.69077 8.96624 4.64105 9.32339 4.53536 9.66556C4.49164 9.7941 4.40295 9.90253 4.28564 9.97087C4.42993 10.0556 4.6047 10.0703 4.7611 10.011C4.91763 9.95163 5.03868 9.82458 5.09039 9.66556C5.19608 9.32339 5.2458 8.96624 5.23755 8.60822V2.22519C5.2358 1.87241 5.45904 1.55761 5.79258 1.44256C5.70389 1.40895 5.60982 1.39209 5.515 1.39259Z" fill="#F8EDF0"></path>
    <path d="M6.90318 4.77259C6.56964 4.88765 6.34641 5.20233 6.34815 5.55523V8.05292C6.34815 8.2062 6.47245 8.33038 6.62573 8.33038C6.77889 8.33038 6.90318 8.2062 6.90318 8.05292V5.55523C6.90156 5.20233 7.12467 4.88765 7.45821 4.77259C7.2792 4.70601 7.0822 4.70601 6.90318 4.77259Z" fill="#F8EDF0"></path>
    <path d="M8.57114 5.6056C8.45372 5.64495 8.34728 5.71154 8.26034 5.79986C8.10406 5.95563 8.01611 6.16738 8.01611 6.38811V8.05333C8.01611 8.20661 8.14041 8.33078 8.29369 8.33078C8.44697 8.33078 8.57114 8.20661 8.57114 8.05333V6.38811C8.56952 6.03533 8.79275 5.72065 9.1263 5.6056C8.94728 5.53902 8.75028 5.53902 8.57114 5.6056Z" fill="#F8EDF0"></path>
    <path d="M10.5127 6.94289C10.418 6.94226 10.3238 6.95913 10.2352 6.99273C10.1178 7.03221 10.0112 7.09879 9.9244 7.18711C9.768 7.34289 9.68018 7.55463 9.68018 7.77537V8.3304C9.68018 8.48368 9.80435 8.60797 9.95763 8.60797C10.1109 8.60797 10.2352 8.48368 10.2352 8.3304V7.77537C10.2335 7.42259 10.4567 7.10791 10.7902 6.99273C10.7015 6.95913 10.6075 6.94226 10.5127 6.94289Z" fill="#F8EDF0"></path>
    <path d="M9.96883 9.625C9.77896 9.625 9.625 9.74047 9.625 9.88286V11.4296C9.625 11.572 9.77896 11.6875 9.96883 11.6875C10.1587 11.6875 10.3125 11.572 10.3125 11.4296V9.88286C10.3125 9.74047 10.1587 9.625 9.96883 9.625Z" fill="#F8EDF0"></path>
    <path d="M10.09 12.375C9.96697 12.3779 9.86566 12.5214 9.85601 12.7061C9.83895 12.8807 9.78183 13.0408 9.6947 13.1588C9.63531 13.2451 9.61158 13.373 9.63244 13.4931C9.65329 13.6134 9.71566 13.7074 9.79539 13.7388C9.87522 13.7702 9.96009 13.7345 10.0174 13.645C10.1911 13.4029 10.2967 13.0697 10.3125 12.714C10.3123 12.5284 10.2132 12.3775 10.09 12.375Z" fill="#F8EDF0"></path>
    <path d="M5.9583 15.125H5.7292C5.60264 15.125 5.5 15.2788 5.5 15.4687C5.5 15.6585 5.60264 15.8125 5.7292 15.8125H5.9583C6.08486 15.8125 6.1875 15.6585 6.1875 15.4687C6.1875 15.2788 6.08486 15.125 5.9583 15.125Z" fill="#F8EDF0"></path>
    <path d="M8.70839 15.125H7.10421C6.97764 15.125 6.875 15.2788 6.875 15.4687C6.875 15.6585 6.97764 15.8125 7.10421 15.8125H8.70839C8.83496 15.8125 8.9375 15.6585 8.9375 15.4687C8.9375 15.2788 8.83496 15.125 8.70839 15.125Z" fill="#F8EDF0"></path>
  </symbol>
  <symbol fill="none" xmlns="http://www.w3.org/2000/svg" viewBox="0 0 16 13" id="download_note">
    <path d="M2.15625 4.55225H4.57776C4.75032 4.55225 4.89026 4.41231 4.89026 4.23975C4.89026 4.06718 4.75032 3.92725 4.57776 3.92725H2.15625C1.98369 3.92725 1.84375 4.06718 1.84375 4.23975C1.84375 4.41231 1.98366 4.55225 2.15625 4.55225Z" fill="#F98AAB"></path>
    <path d="M2.15625 6.7168H4.57776C4.75032 6.7168 4.89026 6.57686 4.89026 6.4043C4.89026 6.23173 4.75032 6.0918 4.57776 6.0918H2.15625C1.98369 6.0918 1.84375 6.23173 1.84375 6.4043C1.84375 6.57686 1.98366 6.7168 2.15625 6.7168Z" fill="#F98AAB"></path>
    <path d="M5.15876 11.955C5.09322 11.7978 4.90838 11.7207 4.75063 11.7859C4.59335 11.851 4.51666 12.037 4.58188 12.1941C4.64719 12.3514 4.83222 12.4282 4.98969 12.3631C5.14688 12.2982 5.22413 12.112 5.15876 11.955Z" fill="#F98AAB"></path>
    <path d="M15.9162 7.11889L12.1992 3.12888L13.3372 1.99347C13.5349 1.798 13.6438 1.53719 13.6438 1.2591C13.6438 0.984877 13.5376 0.726751 13.3449 0.532345C12.9464 0.129844 12.2904 0.124657 11.8826 0.520876C11.8816 0.521845 11.8806 0.522813 11.8796 0.523782L10.3193 2.08038H9.7363V0.880283C9.7363 0.70772 9.59636 0.567782 9.4238 0.567782H7.76902V0.312501C7.76902 0.139938 7.62908 0 7.45652 0C7.28395 0 7.14401 0.139938 7.14401 0.312501V0.567782H6.00242V0.312501C6.00242 0.139938 5.86248 0 5.68992 0C5.51735 0 5.37742 0.139938 5.37742 0.312501V0.567782H4.23579V0.312501C4.23579 0.139938 4.09585 0 3.92329 0C3.75073 0 3.61079 0.139938 3.61079 0.312501V0.567782H2.46913V0.312501C2.46913 0.139938 2.32919 0 2.15663 0C1.98407 0 1.84413 0.139938 1.84413 0.312501V0.567782H0.312501C0.139938 0.567782 0 0.70772 0 0.880283V12.0741C0 12.2466 0.139938 12.3866 0.312501 12.3866H3.50226C3.67482 12.3866 3.81476 12.2466 3.81476 12.0741C3.81476 11.9015 3.67482 11.7616 3.50226 11.7616H0.625001V1.19278H1.84413V1.47632C1.84413 1.64888 1.98407 1.78882 2.15663 1.78882C2.32919 1.78882 2.46913 1.64888 2.46913 1.47632V1.19278H3.61076V1.47632C3.61076 1.64888 3.75069 1.78882 3.92326 1.78882C4.09582 1.78882 4.23576 1.64888 4.23576 1.47632V1.19278H5.37739V1.47632C5.37739 1.64888 5.51732 1.78882 5.68989 1.78882C5.86245 1.78882 6.00239 1.64888 6.00239 1.47632V1.19278H7.14398V1.47632C7.14398 1.64888 7.28392 1.78882 7.45648 1.78882C7.62905 1.78882 7.76898 1.64888 7.76898 1.47632V1.19278H9.11127V2.08213C8.54995 2.10494 8.01389 2.34197 7.61589 2.73776L5.31617 5.03745C5.1772 5.17642 5.20301 5.41445 5.36742 5.52085C5.62636 5.68832 5.91661 5.7966 6.21989 5.84026C6.32098 5.85482 6.42351 5.8622 6.52686 5.8622C6.52736 5.8622 6.52783 5.86217 6.52829 5.86217L6.16957 6.22004C6.14354 6.24604 6.12289 6.27629 6.10761 6.30895L5.10514 7.8147C5.01479 7.95039 4.97792 8.1053 4.99142 8.25548H2.15663C1.98407 8.25548 1.84413 8.39542 1.84413 8.56798C1.84413 8.74055 1.98407 8.88049 2.15663 8.88049H5.67611C5.81136 8.88049 5.94776 8.83539 6.05914 8.7597L7.58286 7.72436C7.60089 7.71255 7.6183 7.69861 7.63355 7.68342L8.34027 6.97836L9.1113 7.7477V11.7616H6.25167C6.07911 11.7616 5.93917 11.9015 5.93917 12.0741C5.93917 12.2466 6.07911 12.3866 6.25167 12.3866H9.4238C9.59636 12.3866 9.7363 12.2466 9.7363 12.0741V8.35773C10.1314 8.68583 10.6239 8.86467 11.1441 8.86467H12.3908C12.6501 8.86467 12.9015 8.9722 13.079 9.15802L15.4599 11.6882C15.6493 11.8895 16 11.7508 16 11.4741V7.33189C16 7.25286 15.9701 7.17673 15.9162 7.11889ZM8.05789 3.17972C8.36058 2.87704 8.77508 2.70532 9.20314 2.70532H9.69274L7.7457 4.64767C7.56555 4.82063 7.39502 4.99013 7.1643 5.09707C6.82386 5.25485 6.42833 5.28004 6.07042 5.16713L8.05789 3.17972ZM12.3193 0.967971C12.4824 0.810908 12.7428 0.812564 12.9009 0.972221C12.9769 1.04891 13.0187 1.15078 13.0187 1.2591C13.0187 1.36897 12.9758 1.47194 12.8968 1.55007L9.63086 4.80838L9.47349 4.65098C9.32611 4.5036 9.14014 4.39535 8.9393 4.33982L12.3193 0.967971ZM5.70786 8.24277C5.68111 8.26095 5.65617 8.25886 5.63298 8.23586C5.59842 8.20161 5.61595 8.17527 5.62539 8.16108L6.44201 6.93448L6.92442 7.41614L5.70786 8.24277ZM7.41311 7.02051L6.83333 6.44073L7.42877 5.8466C7.48498 6.05007 7.59636 6.23582 7.74536 6.38479L7.89783 6.53695L7.41311 7.02051ZM15.375 10.686L13.5326 8.72808C13.2362 8.4177 12.82 8.2397 12.3908 8.2397H11.1441C10.7219 8.2397 10.3249 8.07567 10.0263 7.77786L8.18617 5.94173C7.92052 5.74251 7.97986 5.30085 8.18627 5.09123C8.41817 4.86554 8.80471 4.86601 9.03152 5.09288L10.5266 6.58795C10.6469 6.70817 10.8482 6.7082 10.9686 6.58795C11.0906 6.46592 11.0906 6.26804 10.9686 6.14598L10.0728 5.25026L11.7565 3.57057L15.375 7.45492V10.686Z" fill="#F98AAB"></path>
  </symbol>
  <symbol fill="none" xmlns="http://www.w3.org/2000/svg" viewBox="0 0 35 21" id="master_card">
    <path d="M34.6231 10.8462C34.6231 16.4335 30.1103 21.0001 24.4693 21.0001C18.882 21.0001 14.3154 16.4335 14.3154 10.8462C14.3154 5.25893 18.8283 0.692383 24.4156 0.692383C30.1103 0.692383 34.6231 5.25893 34.6231 10.8462Z" fill="#FFB600"></path>
    <path d="M24.4693 0.692383C30.0566 0.692383 34.6231 5.25893 34.6231 10.8462C34.6231 16.4335 30.1103 21.0001 24.4693 21.0001C18.882 21.0001 14.3154 16.4335 14.3154 10.8462" fill="#F7981D"></path>
    <path d="M24.4692 0.692383C30.0565 0.692383 34.6231 5.25893 34.6231 10.8462C34.6231 16.4335 30.1103 21.0001 24.4692 21.0001" fill="#FF8500"></path>
    <path d="M10.8238 0.692383C5.29017 0.746107 0.777344 5.25893 0.777344 10.8462C0.777344 16.4335 5.29017 21.0001 10.9312 21.0001C13.5637 21.0001 15.9275 19.9793 17.7542 18.3676C18.1302 18.0453 18.4526 17.6692 18.7749 17.2931H16.6797C16.4111 16.9708 16.1424 16.5947 15.9275 16.2724H19.5271C19.742 15.95 19.9568 15.574 20.118 15.1979H15.3366C15.1754 14.8755 15.0142 14.4995 14.9068 14.1234H20.4941C20.8164 13.1027 21.0313 12.0282 21.0313 10.9C21.0313 10.1478 20.9239 9.44941 20.8164 8.751H14.5844C14.6382 8.37493 14.7456 8.05259 14.8531 7.67652H20.4404C20.3329 7.30045 20.1717 6.92438 20.0106 6.60204H15.2829C15.444 6.22597 15.6589 5.90362 15.8738 5.52755H19.4733C19.2584 5.15148 18.9898 4.77542 18.6675 4.45307H16.6797C17.002 4.077 17.3244 3.75466 17.7004 3.43231C15.9275 1.76687 13.51 0.799831 10.8775 0.799831C10.8775 0.692383 10.8775 0.692383 10.8238 0.692383Z" fill="#FF5050"></path>
    <path d="M0.777344 10.8462C0.777344 16.4335 5.29017 21.0001 10.9312 21.0001C13.5637 21.0001 15.9275 19.9793 17.7542 18.3676C18.1302 18.0452 18.4526 17.6692 18.7749 17.2931H16.6797C16.4111 16.9708 16.1424 16.5947 15.9275 16.2723H19.5271C19.742 15.95 19.9568 15.5739 20.118 15.1979H15.3366C15.1754 14.8755 15.0142 14.4995 14.9068 14.1234H20.4941C20.8164 13.1026 21.0313 12.0281 21.0313 10.8999C21.0313 10.1478 20.9239 9.44939 20.8164 8.75097H14.5844C14.6382 8.3749 14.7456 8.05256 14.8531 7.67649H20.4404C20.3329 7.30042 20.1717 6.92435 20.0106 6.60201H15.2829C15.444 6.22594 15.6589 5.90359 15.8738 5.52753H19.4733C19.2584 5.15146 18.9898 4.77539 18.6675 4.45304H16.6797C17.002 4.07698 17.3244 3.75463 17.7004 3.43229C15.9275 1.76684 13.51 0.799805 10.8775 0.799805H10.8238" fill="#E52836"></path>
    <path d="M10.9317 21.0001C13.5641 21.0001 15.928 19.9793 17.7546 18.3676C18.1307 18.0452 18.453 17.6692 18.7754 17.2931H16.6801C16.4115 16.9708 16.1429 16.5947 15.928 16.2723H19.5275C19.7424 15.95 19.9573 15.5739 20.1185 15.1979H15.337C15.1759 14.8755 15.0147 14.4995 14.9072 14.1234H20.4946C20.8169 13.1026 21.0318 12.0281 21.0318 10.8999C21.0318 10.1478 20.9243 9.44939 20.8169 8.75097H14.5849C14.6386 8.3749 14.7461 8.05256 14.8535 7.67649H20.4408C20.3334 7.30042 20.1722 6.92435 20.011 6.60201H15.2833C15.4445 6.22594 15.6594 5.90359 15.8743 5.52753H19.4738C19.2589 5.15146 18.9903 4.77539 18.6679 4.45304H16.6801C17.0025 4.07698 17.3248 3.75463 17.7009 3.43229C15.928 1.76684 13.5104 0.799805 10.8779 0.799805H10.8242" fill="#CB2026"></path>
    <path d="M14.5297 13.424L14.6909 12.5107C14.6371 12.5107 14.5297 12.5644 14.4222 12.5644C14.0462 12.5644 13.9924 12.3495 14.0462 12.2421L14.3685 10.3617H14.9595L15.1206 9.34098H14.5834L14.6909 8.69629H13.6164C13.6164 8.69629 12.9717 12.2421 12.9717 12.6719C12.9717 13.3166 13.3477 13.5852 13.8313 13.5852C14.1536 13.5852 14.4222 13.4777 14.5297 13.424Z" fill="white"></path>
    <path d="M14.9092 11.7047C14.9092 13.2089 15.9299 13.585 16.7895 13.585C17.5954 13.585 17.9177 13.4238 17.9177 13.4238L18.1326 12.4031C18.1326 12.4031 17.5417 12.6717 17.0044 12.6717C15.8225 12.6717 16.0374 11.8121 16.0374 11.8121H18.2401C18.2401 11.8121 18.4012 11.1137 18.4012 10.8451C18.4012 10.1467 18.0252 9.28707 16.8432 9.28707C15.715 9.17962 14.9092 10.3616 14.9092 11.7047ZM16.7895 10.1467C17.3805 10.1467 17.273 10.8451 17.273 10.8988H16.0911C16.0911 10.8451 16.1986 10.1467 16.7895 10.1467Z" fill="white"></path>
    <path d="M23.6179 13.4241L23.8328 12.2422C23.8328 12.2422 23.2956 12.5108 22.9195 12.5108C22.1674 12.5108 21.845 11.9199 21.845 11.2752C21.845 9.98579 22.4897 9.28737 23.2418 9.28737C23.7791 9.28737 24.2089 9.60972 24.2089 9.60972L24.37 8.48151C24.37 8.48151 23.7254 8.21289 23.1344 8.21289C21.8987 8.21289 20.6631 9.28737 20.6631 11.3289C20.6631 12.672 21.3078 13.5853 22.5972 13.5853C23.0269 13.5853 23.6179 13.4241 23.6179 13.4241Z" fill="white"></path>
    <path d="M8.62257 9.17969C7.87043 9.17969 7.33319 9.39458 7.33319 9.39458L7.17202 10.3079C7.17202 10.3079 7.65554 10.093 8.35395 10.093C8.73002 10.093 9.05236 10.1467 9.05236 10.4691C9.05236 10.684 8.99864 10.7377 8.99864 10.7377C8.99864 10.7377 8.67629 10.7377 8.51512 10.7377C7.60181 10.7377 6.58105 11.1138 6.58105 12.3494C6.58105 13.3164 7.22574 13.5313 7.60181 13.5313C8.35395 13.5313 8.67629 13.0478 8.73002 13.0478L8.67629 13.4776H9.64333L10.0731 10.5228C10.0731 9.23341 8.99864 9.17969 8.62257 9.17969ZM8.83747 11.5973C8.83747 11.7584 8.73002 12.618 8.08533 12.618C7.76298 12.618 7.65554 12.3494 7.65554 12.1882C7.65554 11.9196 7.81671 11.5435 8.62257 11.5435C8.78374 11.5973 8.83747 11.5973 8.83747 11.5973Z" fill="white"></path>
    <path d="M11.0941 13.5314C11.3627 13.5314 12.7058 13.5851 12.7058 12.1345C12.7058 10.7914 11.4164 11.06 11.4164 10.5228C11.4164 10.2542 11.6313 10.1467 12.0074 10.1467C12.1685 10.1467 12.7595 10.2005 12.7595 10.2005L12.9207 9.23343C12.9207 9.23343 12.5446 9.12598 11.8999 9.12598C11.0941 9.12598 10.2882 9.44832 10.2882 10.5228C10.2882 11.7585 11.6313 11.651 11.6313 12.1345C11.6313 12.4569 11.2552 12.5106 10.9866 12.5106C10.5031 12.5106 10.0196 12.3494 10.0196 12.3494L9.8584 13.3165C9.91212 13.4239 10.1807 13.5314 11.0941 13.5314Z" fill="white"></path>
    <path d="M32.534 8.32031L32.3191 9.77086C32.3191 9.77086 31.8893 9.23362 31.2983 9.23362C30.3313 9.23362 29.4717 10.4156 29.4717 11.8124C29.4717 12.672 29.9015 13.5853 30.8148 13.5853C31.4595 13.5853 31.8355 13.1555 31.8355 13.1555L31.7818 13.5316H32.8563L33.6622 8.37404L32.534 8.32031ZM32.0504 11.1677C32.0504 11.7587 31.7818 12.5108 31.1908 12.5108C30.8148 12.5108 30.5999 12.1884 30.5999 11.6512C30.5999 10.7916 30.976 10.2544 31.4595 10.2544C31.8355 10.2544 32.0504 10.523 32.0504 11.1677Z" fill="white"></path>
    <path d="M2.76978 13.4778L3.41447 9.60969L3.52192 13.4778H4.27406L5.67088 9.60969L5.07992 13.4778H6.20812L7.06771 8.32031H5.29481L4.22033 11.49L4.16661 8.32031H2.60861L1.74902 13.4778H2.76978Z" fill="white"></path>
    <path d="M19.4241 13.4776C19.7465 11.7047 19.8002 10.2541 20.5523 10.5228C20.6598 9.82435 20.8209 9.55573 20.9284 9.28711C20.9284 9.28711 20.8747 9.28711 20.7135 9.28711C20.23 9.28711 19.8539 9.9318 19.8539 9.9318L19.9614 9.34083H18.9406L18.2422 13.5313H19.4241V13.4776Z" fill="white"></path>
    <path d="M26.0879 9.17969C25.3358 9.17969 24.7985 9.39458 24.7985 9.39458L24.6374 10.3079C24.6374 10.3079 25.1209 10.093 25.8193 10.093C26.1954 10.093 26.5177 10.1467 26.5177 10.4691C26.5177 10.684 26.464 10.7377 26.464 10.7377C26.464 10.7377 26.1416 10.7377 25.9805 10.7377C25.0671 10.7377 24.0464 11.1138 24.0464 12.3494C24.0464 13.3164 24.6911 13.5313 25.0671 13.5313C25.8193 13.5313 26.1416 13.0478 26.1954 13.0478L26.1416 13.4776H27.1087L27.5385 10.5228C27.5922 9.23341 26.464 9.17969 26.0879 9.17969ZM26.3565 11.5973C26.3565 11.7584 26.2491 12.618 25.6044 12.618C25.282 12.618 25.1746 12.3494 25.1746 12.1882C25.1746 11.9196 25.3358 11.5435 26.1416 11.5435C26.3028 11.5973 26.3028 11.5973 26.3565 11.5973Z" fill="white"></path>
    <path d="M28.4476 13.4776C28.7699 11.7047 28.8236 10.2541 29.5758 10.5228C29.6832 9.82435 29.8444 9.55573 29.9518 9.28711C29.9518 9.28711 29.8981 9.28711 29.7369 9.28711C29.2534 9.28711 28.8773 9.9318 28.8773 9.9318L28.9848 9.34083H27.964L27.2656 13.5313H28.4476V13.4776Z" fill="white"></path>
    <path d="M12.8662 12.6719C12.8662 13.3166 13.2423 13.5852 13.7258 13.5852C14.1019 13.5852 14.4242 13.4777 14.5317 13.424L14.6928 12.5107C14.6391 12.5107 14.5317 12.5644 14.4242 12.5644C14.0481 12.5644 13.9944 12.3495 14.0481 12.2421L14.3705 10.3617H14.9615L15.1226 9.34098H14.5854L14.6928 8.69629" fill="#DCE5E5"></path>
    <path d="M15.4443 11.7047C15.4443 13.2089 15.9279 13.585 16.7874 13.585C17.5933 13.585 17.9156 13.4238 17.9156 13.4238L18.1305 12.4031C18.1305 12.4031 17.5396 12.6717 17.0023 12.6717C15.8204 12.6717 16.0353 11.8121 16.0353 11.8121H18.238C18.238 11.8121 18.3992 11.1137 18.3992 10.8451C18.3992 10.1467 18.0231 9.28707 16.8412 9.28707C15.713 9.17962 15.4443 10.3616 15.4443 11.7047ZM16.7874 10.1467C17.3784 10.1467 17.4859 10.8451 17.4859 10.8988H16.089C16.089 10.8451 16.1965 10.1467 16.7874 10.1467Z" fill="#DCE5E5"></path>
    <path d="M23.6158 13.4241L23.8307 12.2422C23.8307 12.2422 23.2935 12.5108 22.9174 12.5108C22.1653 12.5108 21.8429 11.9199 21.8429 11.2752C21.8429 9.98579 22.4876 9.28737 23.2398 9.28737C23.777 9.28737 24.2068 9.60972 24.2068 9.60972L24.368 8.48151C24.368 8.48151 23.7233 8.21289 23.1323 8.21289C21.8967 8.21289 21.1982 9.28737 21.1982 11.3289C21.1982 12.672 21.3057 13.5853 22.5951 13.5853C23.0249 13.5853 23.6158 13.4241 23.6158 13.4241Z" fill="#DCE5E5"></path>
    <path d="M7.17202 10.3616C7.17202 10.3616 7.65554 10.1467 8.35395 10.1467C8.73002 10.1467 9.05236 10.2004 9.05236 10.5228C9.05236 10.7377 8.99864 10.7914 8.99864 10.7914C8.99864 10.7914 8.67629 10.7914 8.51512 10.7914C7.60181 10.7914 6.58105 11.1675 6.58105 12.4031C6.58105 13.3701 7.22574 13.585 7.60181 13.585C8.35395 13.585 8.67629 13.1015 8.73002 13.1015L8.67629 13.5313H9.64333L10.0731 10.5765C10.0731 9.34083 8.99864 9.28711 8.56885 9.28711L7.17202 10.3616ZM9.37471 11.5972C9.37471 11.7584 8.73002 12.618 8.08533 12.618C7.76298 12.618 7.65554 12.3494 7.65554 12.1882C7.65554 11.9196 7.81671 11.5435 8.62257 11.5435C8.78374 11.5972 9.37471 11.5972 9.37471 11.5972Z" fill="#DCE5E5"></path>
    <path d="M9.91309 13.4239C9.91309 13.4239 10.2354 13.5314 11.1487 13.5314C11.4174 13.5314 12.7605 13.5851 12.7605 12.1345C12.7605 10.7914 11.4711 11.06 11.4711 10.5228C11.4711 10.2542 11.686 10.1467 12.062 10.1467C12.2232 10.1467 12.8142 10.2005 12.8142 10.2005L12.9754 9.23343C12.9754 9.23343 12.5993 9.12598 11.9546 9.12598C11.1487 9.12598 10.8801 9.44832 10.8801 10.5228C10.8801 11.7585 11.686 11.651 11.686 12.1345C11.686 12.4569 11.3099 12.5106 11.0413 12.5106" fill="#DCE5E5"></path>
    <path d="M32.3165 9.77085C32.3165 9.77085 31.8867 9.23361 31.2957 9.23361C30.3287 9.23361 30.0063 10.4155 30.0063 11.8124C30.0063 12.672 29.8989 13.5853 30.8122 13.5853C31.4569 13.5853 31.833 13.1555 31.833 13.1555L31.7792 13.5315H32.8537L33.6596 8.37402L32.3165 9.77085ZM32.2628 11.1677C32.2628 11.7586 31.7792 12.5108 31.1883 12.5108C30.8122 12.5108 30.5973 12.1884 30.5973 11.6512C30.5973 10.7916 30.9734 10.2544 31.4569 10.2544C31.833 10.2544 32.2628 10.523 32.2628 11.1677Z" fill="#DCE5E5"></path>
    <path d="M2.76978 13.4778L3.41447 9.60969L3.52192 13.4778H4.27406L5.67088 9.60969L5.07992 13.4778H6.20812L7.06771 8.32031H5.72461L4.22033 11.49L4.16661 8.32031H3.57564L1.74902 13.4778H2.76978Z" fill="#DCE5E5"></path>
    <path d="M18.2949 13.4776H19.4231C19.7455 11.7047 19.7992 10.2541 20.5513 10.5228C20.6588 9.82435 20.82 9.55573 20.9274 9.28711C20.9274 9.28711 20.8737 9.28711 20.7125 9.28711C20.229 9.28711 19.8529 9.9318 19.8529 9.9318L19.9604 9.34083" fill="#DCE5E5"></path>
    <path d="M24.6374 10.3616C24.6374 10.3616 25.1209 10.1467 25.8193 10.1467C26.1953 10.1467 26.5177 10.2004 26.5177 10.5228C26.5177 10.7377 26.464 10.7914 26.464 10.7914C26.464 10.7914 26.1416 10.7914 25.9805 10.7914C25.0671 10.7914 24.0464 11.1675 24.0464 12.4031C24.0464 13.3701 24.6911 13.585 25.0671 13.585C25.8193 13.585 26.1416 13.1015 26.1954 13.1015L26.1416 13.5313H27.1087L27.5385 10.5765C27.5385 9.34083 26.464 9.28711 26.0342 9.28711L24.6374 10.3616ZM26.84 11.5972C26.84 11.7584 26.1953 12.618 25.5507 12.618C25.2283 12.618 25.1209 12.3494 25.1209 12.1882C25.1209 11.9196 25.282 11.5435 26.0879 11.5435C26.3028 11.5972 26.84 11.5972 26.84 11.5972Z" fill="#DCE5E5"></path>
    <path d="M27.3232 13.4776H28.4514C28.7738 11.7047 28.8275 10.2541 29.5797 10.5228C29.6871 9.82435 29.8483 9.55573 29.9557 9.28711C29.9557 9.28711 29.902 9.28711 29.7408 9.28711C29.2573 9.28711 28.8812 9.9318 28.8812 9.9318L28.9887 9.34083" fill="#DCE5E5"></path>
  </symbol>
  <symbol fill="none" xmlns="http://www.w3.org/2000/svg" viewBox="0 0 19 22" id="pay_pal">
    <path d="M16.6704 5.05948C16.5363 4.9805 16.3713 4.975 16.2323 5.04482C16.0934 5.11482 15.9995 5.25047 15.9829 5.40507C15.9664 5.55541 15.9408 5.70572 15.9087 5.86341C15.0113 9.9361 13.2091 11.917 10.3977 11.917H6.2728C6.0553 11.9174 5.86804 12.0705 5.82456 12.2836L4.44958 18.7286L4.20393 20.3695C4.06269 21.1156 4.55304 21.835 5.29914 21.9762C5.38143 21.9918 5.46491 21.9998 5.54866 22.0002H8.30777C8.94018 22.0021 9.49155 21.5705 9.64151 20.9561L10.7561 16.5003H13.1477C15.9701 16.5003 17.9207 14.2499 18.6403 10.1634C19.1153 8.21759 18.3295 6.18167 16.6704 5.05948Z" fill="#03A9F4"></path>
    <path d="M15.8048 1.63351C14.8991 0.606185 13.5994 0.0122793 12.2299 3.33789e-05H4.63995C3.50409 -0.0060681 2.53705 0.824979 2.37218 1.94881L0.0154638 17.6703C-0.0974136 18.4213 0.419794 19.1216 1.17075 19.2345C1.2389 19.2447 1.30777 19.2498 1.3767 19.2498H4.89665C5.11415 19.2494 5.30141 19.0962 5.34489 18.8831L6.64197 12.8332H10.4003C13.6617 12.8332 15.8168 10.5535 16.8068 6.04995C16.8466 5.87043 16.8772 5.68902 16.8984 5.50636C17.1282 4.11698 16.7274 2.69745 15.8048 1.63351Z" fill="#283593"></path>
  </symbol>
  <symbol fill="none" xmlns="http://www.w3.org/2000/svg" viewBox="0 0 49 16" id="visa">
    <path d="M19.9921 0.384277L17.614 15.183H21.4151L23.7917 0.384277H19.9921ZM31.4576 6.41244C30.1292 5.75648 29.3149 5.31377 29.3149 4.64287C29.3312 4.03288 30.0035 3.40794 31.505 3.40794C32.7399 3.37692 33.6476 3.66714 34.3362 3.95589L34.6811 4.10985L35.1979 1.0136C34.4471 0.72338 33.2567 0.403603 31.7863 0.403603C28.0326 0.403603 25.3894 2.35523 25.373 5.14649C25.342 7.20627 27.2654 8.34928 28.7048 9.03496C30.1752 9.73834 30.6757 10.1944 30.6757 10.8193C30.6595 11.7788 29.4868 12.2215 28.3925 12.2215C26.8763 12.2215 26.0618 11.9935 24.8254 11.4589L24.3249 11.2308L23.7933 14.4486C24.6862 14.8455 26.3283 15.1948 28.0328 15.2127C32.0219 15.2127 34.6176 13.2906 34.6503 10.3158C34.6633 8.684 33.6491 7.43413 31.4576 6.41244ZM44.9427 0.430075H42.0019C41.0957 0.430075 40.4071 0.690736 40.0147 1.62067L34.3685 15.183H38.3577L39.4563 12.2467H43.9194L44.4895 15.1948H48.0078L44.9427 0.430075ZM40.5627 9.28344C40.6396 9.29091 42.0938 4.49021 42.0938 4.49021L43.2518 9.28344C43.2518 9.28344 41.3135 9.28344 40.5627 9.28344ZM14.4378 0.384277L10.7137 10.4386L10.308 8.45582C9.61941 6.16802 7.46055 3.68192 5.05127 2.44699L8.46146 15.1682H12.4833L18.4596 0.385901H14.4378V0.384277Z" fill="#2394BC"></path>
    <path d="M9.05643 2.2936C8.76622 1.16521 7.84067 0.40418 6.58365 0.387939H0.68574L0.625 0.661754C5.22578 1.79599 9.08745 5.28608 10.3402 8.56894L9.05643 2.2936Z" fill="#EFC75E"></path>
  </symbol>
</svg>